<?xml version="1.0" encoding="UTF-8" standalone="no"?>
<!-- Created with Inkscape (http://www.inkscape.org/) -->

<svg
   xmlns:dc="http://purl.org/dc/elements/1.1/"
   xmlns:cc="http://creativecommons.org/ns#"
   xmlns:rdf="http://www.w3.org/1999/02/22-rdf-syntax-ns#"
   xmlns:svg="http://www.w3.org/2000/svg"
   xmlns="http://www.w3.org/2000/svg"
   xmlns:sodipodi="http://sodipodi.sourceforge.net/DTD/sodipodi-0.dtd"
   xmlns:inkscape="http://www.inkscape.org/namespaces/inkscape"
   version="1.1"
   id="svg2"
   xml:space="preserve"
   width="755.90668"
   height="755.90668"
   viewBox="0 0 755.90668 755.90668"
   sodipodi:docname="loslaten-negatief.svg"
   inkscape:version="0.92.4 (5da689c313, 2019-01-14)"><metadata
     id="metadata8"><rdf:RDF><cc:Work
         rdf:about=""><dc:format>image/svg+xml</dc:format><dc:type
           rdf:resource="http://purl.org/dc/dcmitype/StillImage" /><dc:title></dc:title></cc:Work></rdf:RDF></metadata><defs
     id="defs6"><clipPath
       clipPathUnits="userSpaceOnUse"
       id="clipPath18"><path
         d="M 0,566.93 H 566.93 V 0 H 0 Z"
         id="path16"
         inkscape:connector-curvature="0" /></clipPath><clipPath
       clipPathUnits="userSpaceOnUse"
       id="clipPath30"><path
         d="M 0,566.93 H 566.93 V 0 H 0 Z"
         id="path28"
         inkscape:connector-curvature="0" /></clipPath><clipPath
       clipPathUnits="userSpaceOnUse"
       id="clipPath50"><path
         d="M 0,566.93 H 566.93 V 0 H 0 Z"
         id="path48"
         inkscape:connector-curvature="0" /></clipPath><clipPath
       clipPathUnits="userSpaceOnUse"
       id="clipPath66"><path
         d="M 0,566.93 H 566.93 V 0 H 0 Z"
         id="path64"
         inkscape:connector-curvature="0" /></clipPath><clipPath
       clipPathUnits="userSpaceOnUse"
       id="clipPath74"><path
         d="M 197,241.93 H 380.36 V -7.67 H 197 Z"
         id="path72"
         inkscape:connector-curvature="0" /></clipPath><clipPath
       clipPathUnits="userSpaceOnUse"
       id="clipPath78"><path
         d="M 380.36,241.93 H 197 V -7.67 h 183.36 z"
         id="path76"
         inkscape:connector-curvature="0" /></clipPath><clipPath
       clipPathUnits="userSpaceOnUse"
       id="clipPath100"><path
         d="M 0,566.93 H 566.93 V 0 H 0 Z"
         id="path98"
         inkscape:connector-curvature="0" /></clipPath></defs><sodipodi:namedview
     pagecolor="#ffffff"
     bordercolor="#666666"
     borderopacity="1"
     objecttolerance="10"
     gridtolerance="10"
     guidetolerance="10"
     inkscape:pageopacity="0"
     inkscape:pageshadow="2"
     inkscape:window-width="1982"
     inkscape:window-height="1234"
     id="namedview4"
     showgrid="false"
     inkscape:zoom="0.88305716"
     inkscape:cx="306.87443"
     inkscape:cy="380.10508"
     inkscape:window-x="4327"
     inkscape:window-y="250"
     inkscape:window-maximized="0"
     inkscape:current-layer="g10" /><g
     id="g10"
     inkscape:groupmode="layer"
     inkscape:label="DAVIS ICON 2.2"
     transform="matrix(1.3333333,0,0,-1.3333333,0,755.90667)"><g
       id="g12"
       style="stroke:#ffffff;fill:#ffffff"><g
         id="g14"
         clip-path="url(#clipPath18)"
         style="stroke:#ffffff;fill:#ffffff"><g
           id="g20"
           transform="translate(538.25,282.5804)"
           style="stroke:#ffffff;fill:#ffffff"><path
             d="m 0,0 c 0,-140.419 -115.229,-252.9 -255.15,-252.9 -139.921,0 -253.35,113.832 -253.35,254.25 0,140.418 113.429,254.25 253.35,254.25 C -115.229,255.6 0,140.418 0,0"
             style="fill:#ffffff;fill-opacity:1;fill-rule:nonzero;stroke:#ffffff"
             id="path22"
             inkscape:connector-curvature="0" /></g></g></g><g
       id="g44"
       style="fill:#000000"><g
         id="g46"
         clip-path="url(#clipPath50)"
         style="fill:#000000"><g
           id="g52"
           transform="translate(229.1924,376.5794)"
           style="fill:#000000"><path
             d="m 0,0 c -3.468,14.429 -5.787,29.174 -6.498,44.005 -0.684,14.294 0.068,28.699 5.626,42.054 5.785,13.899 15.027,26.754 26.393,36.617 11.662,10.118 26.558,15.31 41.845,16.578 15.843,1.314 33.054,-1.729 45.444,-12.339 11.201,-9.594 16.179,-26.473 16.784,-40.75 0.732,-17.286 -1.845,-35.15 -11.605,-49.798 -8.856,-13.292 -21.92,-23.989 -35.69,-31.868 -33.49,-19.164 -74.06,-15.582 -110.01,-6.285 -3.725,0.964 -7.161,-3.193 -5.082,-6.61 7.873,-12.941 22.982,-17.97 32.798,-28.971 3.082,-3.454 8.621,0.211 7.521,4.378 -1.633,6.188 -3.021,12.438 -4.654,18.625 -1.477,5.595 -10.161,3.222 -8.679,-2.392 1.633,-6.188 3.021,-12.437 4.655,-18.625 2.506,1.459 5.014,2.919 7.521,4.378 -9.196,10.306 -24.094,15.155 -31.391,27.149 -1.694,-2.203 -3.388,-4.407 -5.082,-6.61 35.521,-9.187 74.761,-12.781 108.986,3.07 15.951,7.387 30.944,18.826 41.95,32.555 11.636,14.514 17.009,31.864 17.789,50.347 0.708,16.768 -2.191,34.21 -11.437,48.567 -9.482,14.723 -27.167,22.123 -43.995,23.996 -16.412,1.826 -34.606,-1.214 -49.324,-8.814 C 19.16,131.665 7.344,118.55 -1.299,104.651 -10.965,89.106 -15.484,72.412 -15.695,54.164 -15.915,35.192 -13.105,16.024 -8.679,-2.393 -7.326,-8.021 1.355,-5.638 0,0"
             style="fill:#000000;fill-opacity:1;fill-rule:nonzero;stroke:none"
             id="path54"
             inkscape:connector-curvature="0" /></g><g
           id="g56"
           transform="translate(193.2178,363.2615)"
           style="fill:#000000"><path
             d="m 0,0 c -16.598,-5.037 -32.02,-14.236 -43.768,-27.084 -10.563,-11.552 -18.757,-28.681 -10.687,-43.844 8.377,-15.738 27.902,-19.03 44.027,-17.95 20.398,1.366 40.706,5.219 60.826,8.686 38.596,6.652 79.756,14.856 118.818,7.173 17.283,-3.399 34.754,-10.469 46.724,-23.856 12.55,-14.036 12.099,-31.847 0.566,-46.302 -5.838,-7.317 -13.371,-13.191 -21.45,-17.835 -8.167,-4.695 -16.795,-8.594 -24.164,-14.558 -12.554,-10.159 -20.28,-30.209 -7.478,-43.398 4.041,-4.163 10.401,2.204 6.363,6.364 -5.223,5.383 -4.682,13.484 -1.644,19.887 3.515,7.412 10.541,12.229 17.43,16.233 14.036,8.156 27.991,15.039 38.247,28.132 9.122,11.644 13.824,26.755 8.676,41.157 -5.446,15.237 -18.781,26.488 -32.92,33.529 -31.741,15.807 -69.799,13.83 -103.981,9.583 -19.43,-2.415 -38.69,-5.945 -57.988,-9.214 -18.918,-3.204 -39.046,-7.769 -58.318,-6.717 -9.473,0.517 -19.945,3.89 -25.235,12.367 -5.081,8.142 -2.443,17.929 2.14,25.631 9.801,16.471 28.241,27.885 46.209,33.338 C 7.92,-7.001 5.564,1.689 0,0"
             style="fill:#000000;fill-opacity:1;fill-rule:nonzero;stroke:none"
             id="path58"
             inkscape:connector-curvature="0" /></g></g></g><g
       id="g94"
       style="fill:#000000"><g
         id="g96"
         clip-path="url(#clipPath100)"
         style="fill:#000000"><g
           id="g102"
           transform="translate(231,216.429)"
           style="fill:#000000"><path
             d="m 0,0 c -1.649,17.428 -6.164,36.849 -24.992,42.598 -3.493,1.067 -6.167,-2.323 -5.535,-5.535 3.55,-18.053 5.995,-35.642 6.515,-54.041 0.507,-17.914 7.348,-34.781 8.703,-52.621 0.601,-7.912 1.041,-15.997 3.423,-23.62 2.417,-7.736 7.086,-13.978 11.621,-20.571 9.781,-14.221 18.08,-29.4 25.981,-44.726 4.261,-8.264 8.263,-16.67 12.816,-24.779 4.146,-7.382 7.157,-14.1 7.468,-22.704 0.208,-5.774 9.209,-5.802 9,0 -0.542,15.006 -8.561,26.422 -15.107,39.429 -7.875,15.642 -15.879,31.259 -25.109,46.158 -4.473,7.219 -9.721,13.945 -14.132,21.188 -4.692,7.704 -5.934,16.397 -6.633,25.24 -0.647,8.186 -1.359,16.21 -3.152,24.24 -2.059,9.226 -5.037,18.522 -5.668,27.986 -0.683,10.244 -0.48,20.416 -1.784,30.633 -1.311,10.269 -3.267,20.428 -5.264,30.58 -1.845,-1.845 -3.69,-3.69 -5.535,-5.535 C -12.969,29.518 -10.235,13.049 -9,0 -8.459,-5.716 0.546,-5.772 0,0"
             style="fill:#000000;fill-opacity:1;fill-rule:nonzero;stroke:none"
             id="path104"
             inkscape:connector-curvature="0" /></g><g
           id="g106"
           transform="translate(218.855,180.1458)"
           style="fill:#000000"><path
             d="m 0,0 c -0.414,2.654 -0.794,5.287 -1.33,7.918 -0.765,3.753 0.561,4.913 3.101,7.734 4.454,4.948 8.158,11.262 11.201,17.171 3.658,7.102 7.244,14.211 11.054,21.237 2.151,3.965 4.311,7.925 6.479,11.882 1.567,2.861 3.133,7.97 6.099,9.468 l -6.157,1.614 c 2.207,-3.896 4.864,-7.806 6.155,-12.131 1.237,-4.144 0.357,-8.084 -0.641,-12.18 C 33.77,43.727 27.73,35.836 23.759,27.556 c -2.492,-5.199 5.265,-9.769 7.772,-4.543 4.771,9.95 11.452,19.032 13.705,29.985 0.942,4.584 1.476,8.92 0.252,13.522 -1.439,5.403 -4.541,10.23 -7.27,15.047 -1.25,2.206 -4.008,2.7 -6.157,1.615 C 28.825,81.547 27.223,78.633 25.525,75.569 23.026,71.06 20.564,66.528 18.101,62 13.392,53.346 9.1,44.466 4.393,35.822 2.271,31.927 -0.176,27.861 -2.753,24.25 -4.896,21.247 -7.986,18.975 -9.631,15.603 -12.238,10.259 -9.543,3.15 -8.678,-2.393 -7.788,-8.099 0.886,-5.676 0,0"
             style="fill:#000000;fill-opacity:1;fill-rule:nonzero;stroke:none"
             id="path108"
             inkscape:connector-curvature="0" /></g><g
           id="g110"
           transform="translate(226.0347,134.2386)"
           style="fill:#000000"><path
             d="m 0,0 c -1.11,9.181 0.86,17.257 3.439,25.987 1.387,4.695 2.648,9.416 3.46,14.247 0.467,2.781 0.823,5.589 1.063,8.398 0.301,3.514 1.312,4.904 3.697,7.466 15.795,16.959 35.142,30.105 53.209,44.479 H 58.504 C 65.137,94.139 56.271,85.305 51.877,81.05 45.761,75.128 39.265,69.558 33.35,63.435 27.729,57.616 22.02,51.82 20.417,43.633 c -0.902,-4.61 -1.033,-9.332 -1.628,-13.982 -0.406,-3.166 -1.249,-6.15 -1.273,-9.352 -0.043,-5.793 8.957,-5.799 9,0 0.022,2.904 0.956,6.582 1.368,10.21 0.552,4.847 0.416,10.238 2.295,14.822 1.736,4.235 5.91,7.923 9.013,11.19 3.359,3.535 7.002,6.808 10.563,10.136 5.973,5.584 14.18,11.355 17.64,18.902 3.103,6.766 3.101,15.92 -2.527,21.382 -1.89,1.834 -4.434,1.537 -6.364,0 C 48.384,98.89 37.769,91.464 27.828,83.187 19.176,75.98 9.87,68.36 2.736,59.617 1.124,57.64 -0.327,55.646 -0.757,53.096 -1.336,49.667 -1.21,46.088 -1.779,42.627 -2.606,37.597 -3.964,32.689 -5.409,27.809 -8.142,18.578 -10.171,9.686 -9,0 -8.313,-5.678 0.695,-5.747 0,0"
             style="fill:#000000;fill-opacity:1;fill-rule:nonzero;stroke:none"
             id="path112"
             inkscape:connector-curvature="0" /></g><g
           id="g114"
           transform="translate(252.6372,111.3236)"
           style="fill:#000000"><path
             d="m 0,0 c -2.442,4.173 -5.899,8.322 -5.723,13.365 0.136,3.86 0.759,7.775 1.304,11.592 0.497,3.489 1.317,6.713 2.186,10.12 1.197,4.692 1.41,9.729 2.939,14.321 1.206,3.624 4.594,5.697 7.381,8.121 3.914,3.403 7.781,6.858 11.649,10.313 8.019,7.164 18.405,10.769 26.579,17.753 -2.507,1.46 -5.014,2.919 -7.521,4.379 C 37.574,83.991 40.199,78.472 36.469,73.141 32.812,67.914 27.546,62.411 22.681,58.288 17.207,53.649 12.604,50.081 10.676,42.826 7.983,32.7 7.047,21.978 9.804,11.795 11.316,6.21 20,8.58 18.482,14.188 c -2.366,8.74 -2.054,20.654 1.785,29.076 2.472,5.423 9.191,8.708 13.199,13.02 4.165,4.482 10.21,9.657 12.403,15.459 1.073,2.842 1.686,6.096 1.798,9.142 0.054,1.479 -0.028,2.972 -0.054,4.451 -0.01,0.585 0.125,3.534 -0.141,2.235 0.922,4.511 -4.063,7.332 -7.52,4.378 C 35.215,87.902 29.497,85.227 24.165,82.078 19.236,79.168 15.06,75.698 10.808,71.894 3.959,65.767 -5.829,60.069 -8.267,50.714 -10.6,41.766 -12.476,32.377 -13.662,23.192 -14.174,19.224 -15.034,14.974 -14.744,10.957 -14.33,5.208 -10.582,0.259 -7.771,-4.542 -4.847,-9.538 2.935,-5.014 0,0"
             style="fill:#000000;fill-opacity:1;fill-rule:nonzero;stroke:none"
             id="path116"
             inkscape:connector-curvature="0" /></g><g
           id="g118"
           transform="translate(281.1606,169.2337)"
           style="fill:#000000"><path
             d="m 0,0 c 4.483,-12.66 8.974,-25.318 14.26,-37.671 2.615,-6.111 5.441,-12.134 8.53,-18.02 3.273,-6.24 7.949,-12.266 9.835,-19.094 3.55,-12.848 -2.371,-25.453 -0.992,-38.224 1.412,-13.071 7.878,-24.572 14.36,-35.745 2.904,-5.008 10.685,-0.481 7.77,4.543 -6.225,10.732 -14.275,23.351 -13.221,36.3 1.007,12.375 4.271,24.829 0.302,37.055 -1.93,5.948 -5.626,11.098 -8.594,16.548 -3.343,6.137 -6.396,12.429 -9.202,18.829 -5.423,12.37 -9.864,25.148 -14.37,37.872 C 6.758,7.814 -1.94,5.479 0,0"
             style="fill:#000000;fill-opacity:1;fill-rule:nonzero;stroke:none"
             id="path120"
             inkscape:connector-curvature="0" /></g><g
           id="g122"
           transform="translate(266.4497,179.5071)"
           style="fill:#000000"><path
             d="m 0,0 c -1.507,5.517 -2.61,12.515 1.629,17.179 4.44,4.883 7.262,-2.772 9.16,-6.17 1.412,-2.529 5.3,-0.262 3.885,2.271 C 11.844,18.347 7.54,26.848 0.566,22.21 -7.119,17.1 -6.461,6.571 -4.339,-1.196 -3.577,-3.986 0.766,-2.803 0,0"
             style="fill:#000000;fill-opacity:1;fill-rule:nonzero;stroke:none"
             id="path124"
             inkscape:connector-curvature="0" /></g><g
           id="g126"
           transform="translate(279.7798,136.1868)"
           style="fill:#000000"><path
             d="m 0,0 c -2.313,6.713 -4.624,13.426 -6.935,20.14 -0.937,2.721 -5.285,1.551 -4.339,-1.197 C -8.962,12.229 -6.652,5.517 -4.339,-1.196 -3.402,-3.918 0.947,-2.748 0,0"
             style="fill:#000000;fill-opacity:1;fill-rule:nonzero;stroke:none"
             id="path128"
             inkscape:connector-curvature="0" /></g><g
           id="g130"
           transform="translate(268.8032,133.5706)"
           style="fill:#000000"><path
             d="m 0,0 c 3.765,-0.437 8.044,-1.82 11.553,-3.277 3.76,-1.562 5.505,-4.247 7.412,-7.685 1.874,-3.377 7.058,-0.354 5.181,3.028 -2.334,4.208 -4.789,7.7 -9.284,9.748 C 10.3,3.894 4.961,5.424 0,6 -3.829,6.444 -3.797,0.44 0,0"
             style="fill:#000000;fill-opacity:1;fill-rule:nonzero;stroke:none"
             id="path132"
             inkscape:connector-curvature="0" /></g><g
           id="g134"
           transform="translate(276.3408,106.3636)"
           style="fill:#000000"><path
             d="m 0,0 c 3.136,-7.234 10.581,-9.748 17.363,-12.493 11.016,-4.459 18.211,-10.884 20.788,-22.949 0.403,-1.888 3.295,-1.089 2.893,0.796 -2.23,10.442 -7.94,18.155 -17.582,22.774 C 16.106,-8.35 6.172,-6.747 2.59,1.514 1.824,3.28 -0.761,1.755 0,0"
             style="fill:#000000;fill-opacity:1;fill-rule:nonzero;stroke:none"
             id="path136"
             inkscape:connector-curvature="0" /></g></g></g></g></svg>