<?xml version="1.0" encoding="UTF-8" standalone="no"?>
<svg
   xmlns:dc="http://purl.org/dc/elements/1.1/"
   xmlns:cc="http://creativecommons.org/ns#"
   xmlns:rdf="http://www.w3.org/1999/02/22-rdf-syntax-ns#"
   xmlns:svg="http://www.w3.org/2000/svg"
   xmlns="http://www.w3.org/2000/svg"
   viewBox="0 0 755.90668 755.90668"
   height="755.90668"
   width="755.90668"
   xml:space="preserve"
   id="svg2"
   version="1.1"><metadata
     id="metadata8"><rdf:RDF><cc:Work
         rdf:about=""><dc:format>image/svg+xml</dc:format><dc:type
           rdf:resource="http://purl.org/dc/dcmitype/StillImage" /><dc:title></dc:title></cc:Work></rdf:RDF></metadata><defs
     id="defs6"><clipPath
       id="clipPath18"
       clipPathUnits="userSpaceOnUse"><path
         id="path16"
         d="M 0,566.93 H 566.93 V 0 H 0 Z" /></clipPath><clipPath
       id="clipPath30"
       clipPathUnits="userSpaceOnUse"><path
         id="path28"
         d="M 0,566.93 H 566.93 V 0 H 0 Z" /></clipPath><clipPath
       id="clipPath38"
       clipPathUnits="userSpaceOnUse"><path
         id="path36"
         d="M 70.0257,425.12 H 500.97 V 84.3103 H 70.0257 Z" /></clipPath><clipPath
       id="clipPath70"
       clipPathUnits="userSpaceOnUse"><path
         id="path68"
         d="M 0,566.93 H 566.93 V 0 H 0 Z" /></clipPath><clipPath
       id="clipPath110"
       clipPathUnits="userSpaceOnUse"><path
         id="path108"
         d="M 0,566.93 H 566.93 V 0 H 0 Z" /></clipPath></defs><g
     transform="matrix(1.3333333,0,0,-1.3333333,0,755.90667)"
     id="g10"><g
       style="fill:#dddddd;fill-opacity:1"
       id="g12"><g
         style="fill:#dddddd;fill-opacity:1"
         clip-path="url(#clipPath18)"
         id="g14"><g
           style="fill:#dddddd;fill-opacity:1"
           transform="translate(537.25,281.5804)"
           id="g20"><path
             id="path22"
             style="fill:#dddddd;fill-opacity:1;fill-rule:nonzero;stroke:none"
             d="m 0,0 c 0,-140.419 -115.229,-252.9 -255.15,-252.9 -139.921,0 -253.35,113.832 -253.35,254.25 0,140.418 113.429,254.25 253.35,254.25 C -115.229,255.6 0,140.418 0,0" /></g></g></g><g
       style="stroke:#666666"
       id="g24"><g
         style="stroke:#666666"
         clip-path="url(#clipPath30)"
         id="g26"><g
           style="stroke:#666666"
           id="g32"><g
             style="stroke:#666666"
             id="g34" /><g
             style="stroke:#666666"
             id="g62"><g
               style="opacity:0.52999902;stroke:#666666"
               id="g60"
               clip-path="url(#clipPath38)"><g
                 style="stroke:#666666"
                 id="g42"
                 transform="translate(70.5,363.43)"><path
                   id="path40"
                   style="fill:none;stroke:#666666;stroke-width:1;stroke-linecap:butt;stroke-linejoin:miter;stroke-miterlimit:10;stroke-dasharray:none;stroke-opacity:1"
                   d="m 0,0 c 0.5,-1.5 0.5,-2.5 1.5,-4.5 45,-91 83,-183 125.039,-274.411" /></g><g
                 style="stroke:#666666"
                 id="g46"
                 transform="translate(500.5,377.43)"><path
                   id="path44"
                   style="fill:none;stroke:#666666;stroke-width:1;stroke-linecap:butt;stroke-linejoin:miter;stroke-miterlimit:10;stroke-dasharray:none;stroke-opacity:1"
                   d="M 0,0 C -29.5,-81.5 -59.5,-162.5 -89.86,-244.74" /></g><g
                 style="stroke:#666666"
                 id="g50"
                 transform="translate(146.5,413.43)"><path
                   id="path48"
                   style="fill:none;stroke:#666666;stroke-width:2;stroke-linecap:butt;stroke-linejoin:miter;stroke-miterlimit:10;stroke-dasharray:none;stroke-opacity:1"
                   d="M 0,0 C 27.5,-98.5 54.5,-196.5 82.092,-294.104" /></g><g
                 style="stroke:#666666"
                 id="g54"
                 transform="translate(292.5693,139.8909)"><path
                   id="path52"
                   style="fill:none;stroke:#666666;stroke-width:2;stroke-linecap:butt;stroke-linejoin:miter;stroke-miterlimit:10;stroke-dasharray:none;stroke-opacity:1"
                   d="M 0,0 C -4.569,87.039 -4.069,172.539 -9.569,259.039" /></g><g
                 style="stroke:#666666"
                 id="g58"
                 transform="translate(362,151.93)"><path
                   id="path56"
                   style="fill:none;stroke:#666666;stroke-width:2;stroke-linecap:butt;stroke-linejoin:miter;stroke-miterlimit:10;stroke-dasharray:none;stroke-opacity:1"
                   d="M 0,0 C 13.695,68.862 28.91,138.194 42.251,207.126 46.501,229.084 50.75,251.042 55,273" /></g></g></g></g></g></g><g
       style="fill:#000000"
       id="g64"><g
         style="fill:#000000"
         clip-path="url(#clipPath70)"
         id="g66"><g
           style="fill:#000000"
           transform="translate(64.311,361.8113)"
           id="g72"><path
             id="path74"
             style="fill:#000000;fill-opacity:1;fill-rule:nonzero;stroke:none"
             d="m 0,0 c 30.54,-74.374 70.072,-144.551 102.631,-218.002 9.299,-20.979 17.95,-42.24 25.653,-63.859 1.929,-5.417 10.629,-3.083 8.678,2.393 -27,75.783 -65.795,146.425 -100.216,218.924 C 26.892,-39.792 17.406,-18.861 8.679,2.393 6.509,7.677 -2.202,5.363 0,0" /></g><g
           style="fill:#000000"
           transform="translate(201.7988,78.5765)"
           id="g76"><path
             id="path78"
             style="fill:#000000;fill-opacity:1;fill-rule:nonzero;stroke:none"
             d="M 0,0 C 9.419,14.248 20.001,27.597 31.704,40.037 L 27.325,38.88 c 10.942,-1.873 21.797,-4.428 32.835,-5.689 3.273,-0.374 7.5,-1.48 10.178,0.892 1.128,0.999 2.039,2.495 2.99,3.658 6.518,7.977 13.036,15.953 19.555,23.931 H 86.52 c 4.956,-5.884 12.394,-8.825 18.067,-13.961 6.469,-5.856 12.198,-12.482 17.933,-19.039 1.605,-1.836 4.726,-1.624 6.363,0 13.587,13.474 24.42,29.55 35.992,44.754 h -7.771 c 5.676,-9.38 9.389,-19.856 15.711,-28.844 1.036,-1.472 3.173,-2.859 5.082,-2.067 11.109,4.608 21.968,5.022 33.804,3.839 5.759,-0.577 5.719,8.427 0,9 -12.548,1.254 -24.425,0.723 -36.196,-4.162 1.694,-0.688 3.388,-1.378 5.082,-2.067 -6.322,8.988 -10.035,19.464 -15.712,28.843 -1.904,3.145 -5.771,2.628 -7.771,0 C 145.99,63.367 135.565,47.975 122.52,35.035 h 6.363 c -5.735,6.559 -11.466,13.181 -17.932,19.04 -5.618,5.091 -13.205,8.188 -18.068,13.96 -1.46,1.734 -4.917,1.771 -6.363,0 -7.546,-9.233 -15.092,-18.466 -22.637,-27.699 1.061,0.438 2.121,0.878 3.182,1.317 -7.375,0.337 -14.588,1.657 -21.826,3.039 -3.935,0.752 -7.868,1.519 -11.813,2.222 -4.201,0.748 -6.149,1.347 -9.322,-1.826 C 12.037,33.021 1.615,18.741 -7.771,4.543 -10.975,-0.303 -3.184,-4.815 0,0" /></g><g
           style="fill:#000000"
           transform="translate(497.374,377.7464)"
           id="g80"><path
             id="path82"
             style="fill:#000000;fill-opacity:1;fill-rule:nonzero;stroke:none"
             d="m 0,0 c -27.928,-61.563 -48.447,-126.046 -69.357,-190.228 l -18.581,-57.032 c -1.798,-5.519 6.889,-7.885 8.678,-2.392 20.958,64.329 40.711,129.253 65.037,192.414 6.843,17.767 14.128,35.356 21.994,52.696 C 10.146,0.692 2.392,5.272 0,0" /></g><g
           style="fill:#000000"
           transform="translate(72.188,360.7659)"
           id="g84"><path
             id="path86"
             style="fill:#000000;fill-opacity:1;fill-rule:nonzero;stroke:none"
             d="m 0,0 c 24.31,19.819 50.393,37.334 77.864,52.464 h -4.543 c 29.709,-15.024 57.856,-33.009 83.851,-53.815 1.911,-1.53 4.474,-1.859 6.364,0 14.918,14.669 31.655,27.123 49.971,37.233 h -4.542 c 23.963,-13.23 47.301,-27.543 69.957,-42.905 1.615,-1.095 4.135,-0.659 5.453,0.703 22.421,23.165 43.902,47.212 64.4,72.094 -2.507,0.662 -5.015,1.324 -7.522,1.985 9.174,-23.769 19.671,-46.993 31.508,-69.555 0.859,-1.636 3.294,-2.721 5.082,-2.069 16.582,6.052 33.451,11.217 50.578,15.489 5.618,1.4 3.238,10.082 -2.392,8.678 -17.127,-4.271 -33.996,-9.437 -50.578,-15.488 1.694,-0.689 3.387,-1.379 5.082,-2.068 -11.477,21.876 -21.706,44.359 -30.601,67.406 -1.09,2.823 -5.152,4.861 -7.521,1.986 -20.497,-24.882 -41.979,-48.93 -64.4,-72.094 1.819,0.235 3.636,0.469 5.454,0.704 -22.052,14.952 -44.726,29.499 -68.287,41.983 -2.293,1.215 -3.698,1.923 -6.213,0.923 -2.64,-1.05 -5.248,-2.94 -7.674,-4.394 C 195.98,36.077 190.799,32.68 185.765,29.076 175.616,21.811 166.07,13.763 157.172,5.013 h 6.364 c -13.441,10.758 -27.375,20.879 -41.857,30.194 -7.076,4.551 -14.272,8.917 -21.578,13.09 -7.075,4.042 -14.562,9.156 -22.237,11.938 -3.672,1.331 -6.148,-0.869 -9.343,-2.666 C 64.799,55.476 61.103,53.336 57.434,51.151 50.095,46.781 42.866,42.228 35.752,37.501 21.202,27.833 7.175,17.401 -6.364,6.364 -10.855,2.703 -4.454,-3.631 0,0" /></g><g
           style="fill:#000000"
           transform="translate(231.4873,362.1507)"
           id="g88"><path
             id="path90"
             style="fill:#000000;fill-opacity:1;fill-rule:nonzero;stroke:none"
             d="m 0,0 c 8.908,-62.858 18.585,-125.605 27.498,-188.464 2.564,-18.08 5.061,-36.171 7.454,-54.274 0.175,-1.322 2.277,-1.338 2.1,0 C 28.679,-179.394 19.054,-116.223 9.771,-53.007 7.15,-35.157 4.557,-17.304 2.025,0.559 1.836,1.891 -0.187,1.324 0,0" /></g><g
           style="fill:#000000"
           transform="translate(352.4502,356.43)"
           id="g92"><path
             id="path94"
             style="fill:#000000;fill-opacity:1;fill-rule:nonzero;stroke:none"
             d="m 0,0 c -5.703,-62.238 -13.676,-124.241 -19.607,-186.457 -1.668,-17.497 -3.166,-35.01 -4.393,-52.543 -0.095,-1.349 2.006,-1.343 2.1,0 4.361,62.349 12.088,124.397 18.738,186.527 C -1.291,-34.994 0.496,-17.506 2.1,0 2.223,1.345 0.122,1.337 0,0" /></g><g
           style="fill:#000000"
           transform="translate(446.4873,359.7093)"
           id="g96"><path
             id="path98"
             style="fill:#000000;fill-opacity:1;fill-rule:nonzero;stroke:none"
             d="M 0,0 C -19.558,-59.626 -35.159,-120.451 -52.446,-180.751 -57.455,-198.22 -62.602,-215.648 -68,-233 c -0.402,-1.294 1.624,-1.847 2.025,-0.559 18.837,60.551 34.508,122.018 52.447,182.831 4.954,16.794 10.096,33.532 15.553,50.169 C 2.447,0.729 0.42,1.28 0,0" /></g><g
           style="fill:#000000"
           transform="translate(560.7129,382.7567)"
           id="g100"><path
             id="path102"
             style="fill:#000000;fill-opacity:1;fill-rule:nonzero;stroke:none"
             d="m 0,0 c -0.575,-0.288 -1.15,-0.575 -1.727,-0.863 -0.723,-0.362 -0.927,-1.386 -0.538,-2.052 0.432,-0.738 1.326,-0.902 2.053,-0.538 l 1.726,0.863 c 0.724,0.362 0.927,1.385 0.538,2.052 C 1.62,0.2 0.727,0.364 0,0" /></g></g></g><g
       style="fill:#000000"
       id="g104"><g
         style="fill:#000000"
         clip-path="url(#clipPath110)"
         id="g106"><g
           style="fill:#000000"
           transform="translate(414.8271,273.0091)"
           id="g112"><path
             id="path114"
             style="fill:#000000;fill-opacity:1;fill-rule:nonzero;stroke:none"
             d="M 0,0 C 0.207,6.537 -0.362,12.986 -1.546,19.415 -2.244,23.207 -8.027,21.601 -7.331,17.82 -6.244,11.914 -5.811,6.001 -6,0 -6.121,-3.862 -0.121,-3.857 0,0" /></g><g
           style="fill:#000000"
           transform="translate(404.165,239.9534)"
           id="g116"><path
             id="path118"
             style="fill:#000000;fill-opacity:1;fill-rule:nonzero;stroke:none"
             d="M 0,0 C 3.905,5.416 6.63,11.476 8.423,17.895 9.464,21.62 3.677,23.209 2.638,19.49 0.969,13.518 -1.551,8.063 -5.181,3.028 -7.442,-0.109 -2.24,-3.107 0,0" /></g><g
           style="fill:#000000"
           transform="translate(371.9492,229.4466)"
           id="g120"><path
             id="path122"
             style="fill:#000000;fill-opacity:1;fill-rule:nonzero;stroke:none"
             d="M 0,0 C 6.566,-3.497 13.536,-3.024 20.18,0.004 23.688,1.603 20.643,6.775 17.151,5.185 12.551,3.088 7.565,2.765 3.028,5.181 -0.378,6.996 -3.413,1.818 0,0" /></g><g
           style="fill:#000000"
           transform="translate(352.543,259.4525)"
           id="g124"><path
             id="path126"
             style="fill:#000000;fill-opacity:1;fill-rule:nonzero;stroke:none"
             d="m 0,0 c 1.986,-5.921 4.355,-11.686 7.487,-17.098 1.933,-3.341 7.12,-0.323 5.181,3.029 C 9.788,-9.092 7.612,-3.851 5.785,1.595 4.563,5.237 -1.232,3.676 0,0" /></g><g
           style="fill:#000000"
           transform="translate(347.8105,297.6224)"
           id="g128"><path
             id="path130"
             style="fill:#000000;fill-opacity:1;fill-rule:nonzero;stroke:none"
             d="m 0,0 c 0.518,-6.376 1.156,-12.731 2.059,-19.065 0.542,-3.808 6.324,-2.189 5.785,1.594 C 7.018,-11.67 6.474,-5.838 6,0 5.69,3.822 -0.312,3.855 0,0" /></g><g
           style="fill:#000000"
           transform="translate(330.1221,284.1585)"
           id="g132"><path
             id="path134"
             style="fill:#000000;fill-opacity:1;fill-rule:nonzero;stroke:none"
             d="M 0,0 C 1.851,6.868 4.271,13.544 9.281,18.767 11.955,21.554 7.718,25.803 5.039,23.01 -0.689,17.038 -3.663,9.471 -5.785,1.595 -6.791,-2.138 -1.005,-3.73 0,0" /></g><g
           style="fill:#000000"
           transform="translate(317.8916,252.7581)"
           id="g136"><path
             id="path138"
             style="fill:#000000;fill-opacity:1;fill-rule:nonzero;stroke:none"
             d="M 0,0 C 4.593,5.549 7.128,12.045 9.057,18.917 10.102,22.641 4.314,24.23 3.271,20.513 1.641,14.704 -0.343,8.954 -4.243,4.242 -6.687,1.289 -2.466,-2.979 0,0" /></g><g
           style="fill:#000000"
           transform="translate(286.0947,249.7025)"
           id="g140"><path
             id="path142"
             style="fill:#000000;fill-opacity:1;fill-rule:nonzero;stroke:none"
             d="M 0,0 C 4.945,2.482 10.509,-1.376 15.267,-2.777 18.978,-3.87 20.563,1.918 16.861,3.009 9.952,5.044 4.077,8.749 -3.028,5.181 -6.479,3.447 -3.445,-1.73 0,0" /></g><g
           style="fill:#000000"
           transform="translate(283.2412,213.5423)"
           id="g144"><path
             id="path146"
             style="fill:#000000;fill-opacity:1;fill-rule:nonzero;stroke:none"
             d="m 0,0 c 2.701,8.152 1.332,16.349 0.717,24.713 -0.281,3.827 -6.283,3.858 -6,0 C -4.71,16.926 -3.27,9.19 -5.786,1.595 -7.003,-2.079 -1.21,-3.654 0,0" /></g><g
           style="fill:#000000"
           transform="translate(257.731,191.553)"
           id="g148"><path
             id="path150"
             style="fill:#000000;fill-opacity:1;fill-rule:nonzero;stroke:none"
             d="m 0,0 c 3.41,4.523 8.811,6.963 13.652,9.611 3.389,1.854 0.365,7.037 -3.028,5.181 C 4.711,11.558 -1.043,8.518 -5.181,3.028 -7.505,-0.056 -2.298,-3.049 0,0" /></g><g
           style="fill:#000000"
           transform="translate(224.3457,201.4456)"
           id="g152"><path
             id="path154"
             style="fill:#000000;fill-opacity:1;fill-rule:nonzero;stroke:none"
             d="m 0,0 c 3.403,-7.188 8.991,-13.018 16.557,-15.729 3.641,-1.306 5.209,4.489 1.595,5.785 C 12.058,-7.759 7.881,-2.675 5.181,3.028 3.53,6.517 -1.645,3.475 0,0" /></g><g
           style="fill:#000000"
           transform="translate(214.4165,239.7425)"
           id="g156"><path
             id="path158"
             style="fill:#000000;fill-opacity:1;fill-rule:nonzero;stroke:none"
             d="m 0,0 c 2.007,-6.995 3.611,-14.085 5.169,-21.191 0.827,-3.771 6.612,-2.175 5.786,1.594 C 9.396,-12.49 7.792,-5.4 5.786,1.596 4.723,5.301 -1.069,3.725 0,0" /></g><g
           style="fill:#000000"
           transform="translate(203.6289,273.9857)"
           id="g160"><path
             id="path162"
             style="fill:#000000;fill-opacity:1;fill-rule:nonzero;stroke:none"
             d="m 0,0 c 2.611,-6.366 4.715,-12.895 6.634,-19.499 1.075,-3.7 6.867,-2.126 5.785,1.595 C 10.5,-11.3 8.396,-4.771 5.786,1.595 4.34,5.119 -1.467,3.576 0,0" /></g><g
           style="fill:#000000"
           transform="translate(191.8154,305.1888)"
           id="g164"><path
             id="path166"
             style="fill:#000000;fill-opacity:1;fill-rule:nonzero;stroke:none"
             d="m 0,0 c 3.144,-5.276 5.104,-11.041 7.334,-16.733 1.393,-3.555 7.198,-2.008 5.786,1.595 C 10.704,-8.974 8.585,-2.685 5.181,3.028 3.206,6.342 -1.983,3.328 0,0" /></g><g
           style="fill:#000000"
           transform="translate(175.0654,333.1736)"
           id="g168"><path
             id="path170"
             style="fill:#000000;fill-opacity:1;fill-rule:nonzero;stroke:none"
             d="m 0,0 c 3.083,-4.719 6.114,-9.471 9.033,-14.293 1.997,-3.3 7.188,-0.288 5.181,3.028 C 11.295,-6.442 8.264,-1.691 5.181,3.028 3.077,6.249 -2.12,3.246 0,0" /></g><g
           style="fill:#000000"
           transform="translate(151.6646,335.9554)"
           id="g172"><path
             id="path174"
             style="fill:#000000;fill-opacity:1;fill-rule:nonzero;stroke:none"
             d="m 0,0 c 3.31,3.425 7.314,5.748 11.005,8.684 0.525,0.417 1.016,0.875 1.541,1.291 2.016,1.596 0.694,0.242 0.286,0.816 0.92,-1.294 2.243,-2.498 3.314,-3.693 2.583,-2.881 6.814,1.374 4.243,4.243 -2.85,3.18 -5.615,7.386 -10.107,4.424 C 5.271,12.461 -0.078,8.552 -4.243,4.243 -6.927,1.465 -2.689,-2.783 0,0" /></g><g
           style="fill:#000000"
           transform="translate(133.1973,310.5355)"
           id="g176"><path
             id="path178"
             style="fill:#000000;fill-opacity:1;fill-rule:nonzero;stroke:none"
             d="m 0,0 c 2.862,4.951 6.037,9.692 9.649,14.128 2.418,2.97 -1.803,7.24 -4.243,4.243 C 1.469,13.534 -2.059,8.428 -5.181,3.028 -7.117,-0.321 -1.934,-3.346 0,0" /></g><g
           style="fill:#000000"
           transform="translate(122.7422,278.3284)"
           id="g180"><path
             id="path182"
             style="fill:#000000;fill-opacity:1;fill-rule:nonzero;stroke:none"
             d="M 0,0 C 0.786,6.38 2.308,12.602 4.377,18.683 5.624,22.346 -0.17,23.919 -1.409,20.278 -3.662,13.657 -5.145,6.937 -6,0 -6.471,-3.823 -0.467,-3.789 0,0" /></g><g
           style="fill:#000000"
           transform="translate(400.6973,341.8397)"
           id="g184"><path
             id="path186"
             style="fill:#000000;fill-opacity:1;fill-rule:nonzero;stroke:none"
             d="m 0,0 c 5.934,-12.861 11.867,-25.722 17.801,-38.583 2.019,-4.378 8.486,-0.572 6.476,3.785 C 18.344,-21.937 12.41,-9.076 6.477,3.785 4.456,8.163 -2.011,4.357 0,0" /></g><g
           style="fill:#000000"
           transform="translate(398.7041,299.2318)"
           id="g188"><path
             id="path190"
             style="fill:#000000;fill-opacity:1;fill-rule:nonzero;stroke:none"
             d="m 0,0 c 9.451,15.374 20.234,29.791 32.332,43.183 3.229,3.574 -2.06,8.894 -5.304,5.303 C 14.513,34.631 3.303,19.692 -6.477,3.786 -9.011,-0.337 -2.526,-4.109 0,0" /></g><g
           style="fill:#000000"
           transform="translate(398.2656,340.9178)"
           id="g192"><path
             id="path194"
             style="fill:#000000;fill-opacity:1;fill-rule:nonzero;stroke:none"
             d="m 0,0 c 6.3,-12.624 12.601,-25.248 18.901,-37.871 2.156,-4.319 8.627,-0.525 6.477,3.785 C 19.077,-21.462 12.776,-8.838 6.476,3.785 4.32,8.104 -2.151,4.31 0,0" /></g><g
           style="fill:#000000"
           transform="translate(397.501,299.7132)"
           id="g196"><path
             id="path198"
             style="fill:#000000;fill-opacity:1;fill-rule:nonzero;stroke:none"
             d="m 0,0 c 8.349,14.204 18.376,27.178 30.018,38.836 3.415,3.42 -1.887,8.726 -5.303,5.304 C 12.643,32.05 2.181,18.515 -6.477,3.786 -8.928,-0.385 -2.447,-4.163 0,0" /></g><g
           style="fill:#000000"
           transform="translate(398.4414,300.2913)"
           id="g200"><path
             id="path202"
             style="fill:#000000;fill-opacity:1;fill-rule:nonzero;stroke:none"
             d="m 0,0 c 8.388,12.375 18.183,23.599 29.234,33.661 3.578,3.256 -1.739,8.548 -5.302,5.303 C 12.41,28.474 2.265,16.682 -6.476,3.785 -9.19,-0.221 -2.695,-3.978 0,0" /></g><g
           style="fill:#000000"
           transform="translate(398.4111,299.4251)"
           id="g204"><path
             id="path206"
             style="fill:#000000;fill-opacity:1;fill-rule:nonzero;stroke:none"
             d="m 0,0 c 9.462,13.935 20.555,26.556 33.08,37.814 3.597,3.233 -1.721,8.523 -5.304,5.303 C 14.777,31.434 3.341,18.243 -6.477,3.785 -9.195,-0.218 -2.699,-3.975 0,0" /></g><g
           style="fill:#000000"
           transform="translate(424.0586,342.0067)"
           id="g208"><path
             id="path210"
             style="fill:#000000;fill-opacity:1;fill-rule:nonzero;stroke:none"
             d="m 0,0 -16.854,-18.636 c -3.231,-3.572 2.057,-8.892 5.302,-5.303 5.619,6.212 11.238,12.424 16.856,18.636 C 8.534,-1.731 3.246,3.589 0,0" /></g><g
           style="fill:#000000"
           transform="translate(423.3174,349.2737)"
           id="g212"><path
             id="path214"
             style="fill:#000000;fill-opacity:1;fill-rule:nonzero;stroke:none"
             d="m 0,0 c -7.251,-8.477 -13.813,-17.468 -19.626,-26.989 -2.522,-4.13 3.962,-7.903 6.476,-3.785 5.483,8.979 11.614,17.475 18.453,25.47 C 8.425,-1.654 3.144,3.675 0,0" /></g><g
           style="fill:#000000"
           transform="translate(395.8262,340.8797)"
           id="g216"><path
             id="path218"
             style="fill:#000000;fill-opacity:1;fill-rule:nonzero;stroke:none"
             d="m 0,0 c 6.537,-12.899 13.074,-25.799 19.611,-38.699 2.182,-4.306 8.655,-0.514 6.476,3.785 C 19.55,-22.014 13.013,-9.114 6.476,3.785 4.294,8.092 -2.18,4.3 0,0" /></g><g
           style="fill:#000000"
           transform="translate(404.3018,338.907)"
           id="g220"><path
             id="path222"
             style="fill:#000000;fill-opacity:1;fill-rule:nonzero;stroke:none"
             d="m 0,0 c 4.414,-10.164 8.828,-20.328 13.242,-30.493 1.918,-4.415 8.382,-0.601 6.477,3.786 C 15.304,-16.543 10.89,-6.379 6.476,3.785 4.558,8.201 -1.905,4.387 0,0" /></g></g></g></g></svg>