<?xml version="1.0" encoding="UTF-8" standalone="no"?>
<!-- Created with Inkscape (http://www.inkscape.org/) -->

<svg
   xmlns:dc="http://purl.org/dc/elements/1.1/"
   xmlns:cc="http://creativecommons.org/ns#"
   xmlns:rdf="http://www.w3.org/1999/02/22-rdf-syntax-ns#"
   xmlns:svg="http://www.w3.org/2000/svg"
   xmlns="http://www.w3.org/2000/svg"
   xmlns:sodipodi="http://sodipodi.sourceforge.net/DTD/sodipodi-0.dtd"
   xmlns:inkscape="http://www.inkscape.org/namespaces/inkscape"
   version="1.1"
   id="svg2"
   xml:space="preserve"
   width="755.90668"
   height="755.90668"
   viewBox="0 0 755.90668 755.90668"
   sodipodi:docname="energie-meter-grijs.svg"
   inkscape:version="0.92.4 (5da689c313, 2019-01-14)"
   inkscape:export-filename="/home/willem/repos/tools2c/icons/energie-meter.png"
   inkscape:export-xdpi="300"
   inkscape:export-ydpi="300"><metadata
     id="metadata8"><rdf:RDF><cc:Work
         rdf:about=""><dc:format>image/svg+xml</dc:format><dc:type
           rdf:resource="http://purl.org/dc/dcmitype/StillImage" /><dc:title></dc:title></cc:Work></rdf:RDF></metadata><defs
     id="defs6"><clipPath
       clipPathUnits="userSpaceOnUse"
       id="clipPath18"><path
         d="M 0,566.93 H 566.93 V 0 H 0 Z"
         id="path16"
         inkscape:connector-curvature="0" /></clipPath><clipPath
       clipPathUnits="userSpaceOnUse"
       id="clipPath30"><path
         d="M 0,566.93 H 566.93 V 0 H 0 Z"
         id="path28"
         inkscape:connector-curvature="0" /></clipPath><clipPath
       clipPathUnits="userSpaceOnUse"
       id="clipPath86"><path
         d="M 0,566.93 H 566.93 V 0 H 0 Z"
         id="path84"
         inkscape:connector-curvature="0" /></clipPath></defs><sodipodi:namedview
     pagecolor="#ffffff"
     bordercolor="#666666"
     borderopacity="1"
     objecttolerance="10"
     gridtolerance="10"
     guidetolerance="10"
     inkscape:pageopacity="0"
     inkscape:pageshadow="2"
     inkscape:window-width="2710"
     inkscape:window-height="1539"
     id="namedview4"
     showgrid="false"
     inkscape:zoom="1.7661143"
     inkscape:cx="325.59342"
     inkscape:cy="403.07278"
     inkscape:window-x="0"
     inkscape:window-y="39"
     inkscape:window-maximized="0"
     inkscape:current-layer="g10" /><g
     id="g10"
     inkscape:groupmode="layer"
     inkscape:label="DAVIS ICON 3.2"
     transform="matrix(1.3333333,0,0,-1.3333333,0,755.90667)"><g
       id="g12"
       style="fill:#dddddd;fill-opacity:1"><g
         id="g14"
         clip-path="url(#clipPath18)"
         style="fill:#dddddd;fill-opacity:1"><g
           id="g20"
           transform="translate(536.25,280.5804)"
           style="fill:#dddddd;fill-opacity:1"><path
             d="m 0,0 c 0,-140.419 -115.229,-252.9 -255.15,-252.9 -139.921,0 -253.35,113.832 -253.35,254.25 0,140.418 113.429,254.25 253.35,254.25 C -115.229,255.6 0,140.418 0,0"
             style="fill:#dddddd;fill-opacity:1;fill-rule:nonzero;stroke:none"
             id="path22"
             inkscape:connector-curvature="0" /></g></g></g><g
       id="g24"
       style="fill:#000000"><g
         id="g26"
         clip-path="url(#clipPath30)"
         style="fill:#000000"><g
           id="g32"
           transform="translate(465.501,351.9026)"
           style="fill:#000000"><path
             d="m 0,0 c -23.749,-9.42 -48.914,-25.286 -71,-38 -19.984,-11.504 -39.589,-23.663 -58.909,-36.248 -19.305,-12.575 -38.316,-25.577 -57.037,-39.006 -1.168,-0.837 -2.585,-2.212 -3.936,-2.662 1.477,0.617 3.063,-0.272 4.396,-0.849 4.908,-2.118 10.68,-2.589 15.985,-3.208 2.48,-0.289 4.532,-1.332 7.031,-1.277 2.153,0.048 4.54,0.176 6.52,1.119 2.3,1.096 4.443,3.054 6.503,4.558 10.322,7.536 20.515,15.187 30.924,22.617 14.984,10.688 29.963,21.385 44.811,32.263 C -51.64,-43.791 -28.854,-26.461 -7,-8 c 1.264,1.067 3.325,3.019 7,8"
             style="fill:#000000;fill-opacity:1;fill-rule:nonzero;stroke:none"
             id="path34"
             inkscape:connector-curvature="0" /></g><g
           id="g36"
           transform="translate(413.5,359.43)"
           style="fill:#000000"><path
             d="m 0,0 c 9.198,10.995 8.802,13.005 18,24 0.222,0.265 4.958,6.659 5,7 -6,3 -11,6 -17,11 1,7 2.511,17.916 3.098,25.843 L -9.739,35.015 C -2.548,31.666 2.323,28.283 9,24 4.914,16.144 3.22,7.683 -0.26,-0.46 Z"
             style="fill:#000000;fill-opacity:1;fill-rule:nonzero;stroke:none"
             id="path38"
             inkscape:connector-curvature="0" /></g><g
           id="g40"
           transform="translate(366.7061,340.9612)"
           style="fill:#000000"><path
             d="m 0,0 c -0.92,14.396 -2.605,15.563 -3.526,29.959 -0.022,0.347 -1.004,8.287 -1.211,8.562 -6.466,-2.074 -12.201,-3.442 -20.057,-4.077 -4.132,5.741 -10.611,14.658 -15.689,20.775 l 9.047,-36.9 c 7.578,2.662 13.486,3.664 21.337,5.292 C -7.626,15.079 -2.985,7.797 0.13,-0.515 Z"
             style="fill:#000000;fill-opacity:1;fill-rule:nonzero;stroke:none"
             id="path42"
             inkscape:connector-curvature="0" /></g><g
           id="g44"
           transform="translate(413.5,199.43)"
           style="fill:#000000"><path
             d="m 0,0 c 9.198,10.995 8.802,13.005 18,24 0.222,0.265 4.958,6.659 5,7 -6,3 -11,6 -17,11 1,7 2.511,17.916 3.098,25.844 L -9.739,35.015 C -2.548,31.666 2.323,28.283 9,24 4.914,16.144 3.22,7.683 -0.26,-0.46 Z"
             style="fill:#000000;fill-opacity:1;fill-rule:nonzero;stroke:none"
             id="path46"
             inkscape:connector-curvature="0" /></g><g
           id="g48"
           transform="translate(456.1367,310.8387)"
           style="fill:#000000"><path
             d="m 0,0 c 7.614,-12.146 9.648,-12.39 17.263,-24.535 0.183,-0.293 4.8,-6.774 5.112,-6.919 4.708,4.78 9.105,8.608 15.715,12.769 6.348,-3.114 16.264,-7.924 23.621,-10.932 l -25.4,28.059 C 30.903,-7.362 26.181,-10.949 20.044,-15.976 13.835,-9.662 6.312,-5.436 -0.357,0.39 Z"
             style="fill:#000000;fill-opacity:1;fill-rule:nonzero;stroke:none"
             id="path50"
             inkscape:connector-curvature="0" /></g><g
           id="g52"
           transform="translate(364.3525,424.2366)"
           style="fill:#000000"><path
             d="m 0,0 c -1.672,14.329 -3.417,15.405 -5.089,29.733 -0.04,0.346 -1.436,8.224 -1.657,8.487 -6.349,-2.409 -12.005,-4.075 -19.816,-5.121 -4.427,5.517 -11.365,14.083 -16.756,19.925 l 10.966,-36.376 c 7.428,3.057 13.276,4.366 21.032,6.403 C -8.404,14.659 -3.39,7.63 0.156,-0.507 Z"
             style="fill:#000000;fill-opacity:1;fill-rule:nonzero;stroke:none"
             id="path54"
             inkscape:connector-curvature="0" /></g><g
           id="g56"
           transform="translate(298.9512,342.7308)"
           style="fill:#000000"><path
             d="m 0,0 c -11.156,9.146 -13.159,8.708 -24.315,17.854 -0.269,0.22 -6.746,4.917 -7.088,4.953 -2.893,-6.143 -5.804,-11.271 -10.697,-17.449 -7.016,0.893 -17.958,2.236 -25.894,2.694 l 33.158,-18.549 c 3.22,7.358 6.516,12.362 10.68,19.214 7.927,-4.01 16.418,-5.582 24.621,-8.973 z"
             style="fill:#000000;fill-opacity:1;fill-rule:nonzero;stroke:none"
             id="path58"
             inkscape:connector-curvature="0" /></g><g
           id="g60"
           transform="translate(498.9395,183.6673)"
           style="fill:#000000"><path
             d="m 0,0 c 1.092,14.385 -0.415,15.774 0.678,30.158 0.026,0.347 0.158,8.347 -0.008,8.648 -6.691,-1.154 -12.562,-1.71 -20.429,-1.246 -3.293,6.259 -8.469,15.992 -12.646,22.756 l 3.824,-37.8 c 7.875,1.583 13.864,1.753 21.866,2.272 1.262,-8.794 4.844,-16.65 6.772,-25.314 z"
             style="fill:#000000;fill-opacity:1;fill-rule:nonzero;stroke:none"
             id="path62"
             inkscape:connector-curvature="0" /></g><g
           id="g64"
           transform="translate(415.9395,112.8411)"
           style="fill:#000000"><path
             d="m 0,0 c 12.011,7.825 12.22,9.863 24.23,17.688 0.29,0.189 6.689,4.918 6.829,5.233 -4.862,4.623 -8.766,8.953 -13.041,15.489 3.003,6.402 7.638,16.4 10.517,23.809 L 0.924,36.332 C 6.821,31.027 10.491,26.368 15.623,20.319 9.419,14.001 5.325,6.405 -0.384,-0.364 Z"
             style="fill:#000000;fill-opacity:1;fill-rule:nonzero;stroke:none"
             id="path66"
             inkscape:connector-curvature="0" /></g><g
           id="g68"
           transform="translate(278.5005,456.8358)"
           style="fill:#000000"><path
             d="m 0,0 c -5.789,13.213 -7.771,13.733 -13.56,26.946 -0.14,0.319 -3.778,7.444 -4.066,7.632 -5.367,-4.161 -10.289,-7.408 -17.453,-10.691 -5.847,3.981 -14.985,10.144 -21.849,14.155 l 21.122,-31.58 c 6.21,5.095 11.419,8.057 18.241,12.271 5.242,-7.171 12.093,-12.427 17.862,-19.172 z"
             style="fill:#000000;fill-opacity:1;fill-rule:nonzero;stroke:none"
             id="path70"
             inkscape:connector-curvature="0" /></g><g
           id="g72"
           transform="translate(198.0586,408.3553)"
           style="fill:#000000"><path
             d="m 0,0 c -13.245,5.716 -15.049,4.743 -28.294,10.459 -0.319,0.138 -7.84,2.868 -8.179,2.808 -1.088,-6.703 -2.472,-12.434 -5.473,-19.722 -6.991,-1.075 -17.878,-2.8 -25.634,-4.547 l 36.986,-8.691 c 1.068,7.961 2.857,13.679 4.971,21.414 8.726,-1.67 17.32,-0.841 26.14,-1.839 z"
             style="fill:#000000;fill-opacity:1;fill-rule:nonzero;stroke:none"
             id="path74"
             inkscape:connector-curvature="0" /></g><g
           id="g76"
           transform="translate(285.6729,395.4212)"
           style="fill:#000000"><path
             d="m 0,0 c -7.784,12.145 -9.824,12.348 -17.608,24.493 -0.187,0.293 -4.896,6.761 -5.21,6.902 -4.65,-4.949 -9.003,-8.926 -15.565,-13.29 -6.398,3.018 -16.388,7.675 -23.795,10.563 L -36.375,0.781 c 5.336,6.003 10.018,9.744 16.096,14.974 6.3,-6.264 13.888,-10.382 20.642,-16.142 z"
             style="fill:#000000;fill-opacity:1;fill-rule:nonzero;stroke:none"
             id="path78"
             inkscape:connector-curvature="0" /></g></g></g><g
       id="g80"
       style="fill:#000000"><g
         id="g82"
         clip-path="url(#clipPath86)"
         style="fill:#000000"><g
           id="g88"
           transform="translate(278.3833,235.4085)"
           style="fill:#000000"><path
             d="m 0,0 c 16.173,8.825 33.021,22.055 31.228,42.521 -0.272,3.105 -3.716,5.991 -6.771,3.886 C 9.21,35.906 -6.45,25.934 -23.242,18.067 -39.776,10.322 -54.553,-0.931 -69.986,-10.707 c -8.289,-5.251 -16.675,-10.363 -24.897,-15.718 -7.161,-4.663 -11.208,-13.204 -15.836,-20.151 -9.984,-14.985 -20.482,-29.631 -31.541,-43.841 -6.338,-8.144 -12.849,-16.151 -19.499,-24.041 -3.282,-3.895 -6.478,-7.97 -9.993,-11.654 -3.665,-3.84 -8.283,-7.009 -12.902,-9.634 -5.036,-2.861 -0.506,-10.64 4.542,-7.772 15.496,8.804 26.146,24.097 37.122,37.767 11.115,13.844 21.771,28.058 31.892,42.645 5.444,7.845 10.388,16.09 15.978,23.823 5.44,7.525 15.543,11.883 23.301,16.776 7.991,5.04 15.972,10.099 23.888,15.257 7.52,4.899 14.846,10.969 23.045,14.619 19.045,8.479 36.747,19.463 53.885,31.267 -2.257,1.295 -4.514,2.591 -6.771,3.885 C 23.735,25.317 8.896,15.104 -4.542,7.771 -9.628,4.995 -5.091,-2.778 0,0"
             style="fill:#000000;fill-opacity:1;fill-rule:nonzero;stroke:none"
             id="path90"
             inkscape:connector-curvature="0" /></g><g
           id="g92"
           transform="translate(236.7744,232.1224)"
           style="fill:#000000"><path
             d="m 0,0 c 2.445,1.547 4.902,3.032 7.256,4.712 3.427,2.443 4.718,2.345 8.693,0.803 6.847,-2.655 14.569,-3.964 21.873,-4.746 8.477,-0.909 16.965,-1.565 25.438,-2.58 4.503,-0.54 9.005,-1.089 13.506,-1.649 3.361,-0.417 9.759,0.098 12.278,-2.233 -0.235,1.817 -0.47,3.634 -0.704,5.453 -2.731,-3.63 -5.302,-7.529 -8.666,-10.62 -3.33,-3.061 -7.089,-4.03 -11.418,-4.826 -10.452,-1.92 -21.314,1.231 -31.788,1.932 -5.782,0.387 -5.758,-8.614 0,-9 12.581,-0.843 24.386,-3.767 36.915,-1.058 10.78,2.331 16.465,10.705 22.728,19.029 1.145,1.522 0.634,4.215 -0.704,5.453 C 92.759,3.123 89.92,3.863 86.41,4.33 81.271,5.014 76.123,5.624 70.979,6.254 60.546,7.531 50.133,8.669 39.666,9.593 34.657,10.035 29.71,11.195 24.771,12.127 20.839,12.869 17.375,15.089 13.432,15.708 6.567,16.787 0.888,11.206 -4.542,7.771 -9.425,4.684 -4.914,-3.108 0,0"
             style="fill:#000000;fill-opacity:1;fill-rule:nonzero;stroke:none"
             id="path94"
             inkscape:connector-curvature="0" /></g><g
           id="g96"
           transform="translate(195.605,206.0325)"
           style="fill:#000000"><path
             d="m 0,0 c 8.552,4.998 17.39,6.16 27.057,7.186 5.261,0.558 10.514,1.265 15.667,2.49 2.752,0.654 5.402,1.637 8.133,2.339 3.986,1.024 5.975,0.217 9.614,-1.267 22.492,-9.177 42.529,-23.566 63.287,-35.986 -0.688,1.693 -1.378,3.387 -2.067,5.081 -1.267,-3.325 -5.687,-4.916 -8.922,-5.251 -4.66,-0.484 -8.882,2.223 -12.944,4.135 -8.212,3.864 -16.221,8.222 -24.563,11.8 -7.781,3.338 -15.487,6.83 -24.089,5.342 C 46.453,-4.948 41.944,-6.693 37.359,-8.03 33.151,-9.257 28.8,-8.602 24.738,-10.013 19.3,-11.902 21.639,-20.6 27.13,-18.691 c 1.943,0.674 3.502,0.237 5.518,0.392 2.697,0.207 5.365,1.067 7.938,1.835 4.898,1.463 10.078,3.793 15.259,3.855 4.612,0.053 9.535,-2.489 13.737,-4.181 5.127,-2.064 10.054,-4.637 15.011,-7.075 4.259,-2.095 8.522,-4.18 12.827,-6.178 4.365,-2.024 8.523,-4.242 13.426,-4.395 8.221,-0.257 16.53,4.033 19.524,11.888 0.704,1.851 -0.475,4.129 -2.069,5.082 -22.205,13.286 -43.722,28.913 -68.12,38.003 -2.529,0.943 -5.459,1.886 -8.173,1.43 C 48.638,21.397 45.235,19.598 41.881,18.737 36.393,17.33 30.82,16.566 25.193,15.995 14.576,14.918 4.81,13.236 -4.542,7.771 -9.541,4.851 -5.016,-2.932 0,0"
             style="fill:#000000;fill-opacity:1;fill-rule:nonzero;stroke:none"
             id="path98"
             inkscape:connector-curvature="0" /></g><g
           id="g100"
           transform="translate(183.2695,168.7532)"
           style="fill:#000000"><path
             d="m 0,0 c 2.763,3.772 5.287,8.948 9.727,10.944 3.63,1.632 7.882,2.468 11.714,3.502 3.947,1.066 7.432,1.786 11.149,2.268 5.163,0.668 10.169,2.378 15.321,2.973 4.295,0.497 7.304,-1.809 10.967,-3.785 4.789,-2.582 9.6,-5.121 14.434,-7.617 10.605,-5.476 18.301,-14.832 28.711,-20.548 0.359,2.742 0.717,5.484 1.076,8.226 C 96.87,-5.152 92.53,-10.474 85.616,-8.319 79.022,-6.266 71.85,-3.706 65.875,-0.231 62.372,1.806 58.905,4.219 54.917,5.22 50.8,6.252 46.644,5.667 42.547,4.864 32.363,2.871 23.247,-0.299 15.098,-6.886 c -4.505,-3.641 1.897,-9.974 6.364,-6.364 7.382,5.967 18.095,9.55 27.576,10.041 7.032,0.364 13.606,-5.807 19.966,-8.381 6.037,-2.442 13.85,-6.758 20.494,-6.185 3.249,0.28 6.425,0.935 9.42,2.202 2.07,0.875 4.358,2.461 6.573,2.857 3.862,0.692 4.295,6.457 1.075,8.225 C 100.433,-1.124 95.43,3.728 90.013,8.082 85.006,12.106 79.747,15.057 74.07,18.02 65.127,22.687 56.142,30.075 45.589,28.385 35.72,26.805 25.687,25.021 16.058,22.297 11.9,21.12 7.132,20.165 3.463,17.784 -1.398,14.63 -4.43,9.105 -7.771,4.542 -11.197,-0.136 -3.391,-4.631 0,0"
             style="fill:#000000;fill-opacity:1;fill-rule:nonzero;stroke:none"
             id="path102"
             inkscape:connector-curvature="0" /></g><g
           id="g104"
           transform="translate(251.1416,161.7767)"
           style="fill:#000000"><path
             d="m 0,0 c -10.134,-9.486 -20.272,-18.987 -29.817,-29.073 -9.329,-9.857 -16.97,-20.866 -25.798,-31.088 -9.219,-10.675 -21.849,-12.799 -34.671,-16.819 -11.443,-3.588 -20.323,-11.629 -27.849,-20.685 -3.677,-4.424 2.656,-10.824 6.364,-6.363 4.004,4.817 8.306,9.532 13.465,13.143 4.977,3.484 10.283,5.221 16.08,6.815 12.489,3.432 24.269,7.466 32.975,17.545 8.628,9.991 16.086,20.774 25.175,30.427 9.728,10.331 20.085,20.04 30.44,29.734 C 10.602,-2.397 4.228,3.957 0,0"
             style="fill:#000000;fill-opacity:1;fill-rule:nonzero;stroke:none"
             id="path106"
             inkscape:connector-curvature="0" /></g><g
           id="g108"
           transform="translate(255.8218,182.638)"
           style="fill:#000000"><path
             d="m 0,0 c 4.815,3.878 11.745,8.141 18.035,5.086 5.914,-2.872 -0.659,-9.264 -3.122,-12.503 -1.752,-2.305 2.153,-4.549 3.886,-2.271 3.815,5.016 10.352,12.972 2.797,17.963 C 13.295,13.759 3.558,8.61 -3.182,3.182 -5.437,1.365 -2.236,-1.801 0,0"
             style="fill:#000000;fill-opacity:1;fill-rule:nonzero;stroke:none"
             id="path110"
             inkscape:connector-curvature="0" /></g><g
           id="g112"
           transform="translate(218.5264,150.5677)"
           style="fill:#000000"><path
             d="m 0,0 c 5.681,5.227 11.363,10.451 17.045,15.677 2.137,1.964 -1.052,5.14 -3.182,3.181 C 8.182,13.634 2.499,8.408 -3.182,3.183 -5.318,1.218 -2.129,-1.959 0,0"
             style="fill:#000000;fill-opacity:1;fill-rule:nonzero;stroke:none"
             id="path114"
             inkscape:connector-curvature="0" /></g><g
           id="g116"
           transform="translate(211.5093,160.9349)"
           style="fill:#000000"><path
             d="m 0,0 c 1.054,-4.055 1.491,-8.915 1.496,-13.146 0.006,-4.978 -1.914,-8.327 -4.869,-12.195 -2.343,-3.067 2.866,-6.059 5.181,-3.028 3.166,4.145 5.449,8.124 5.677,13.439 C 7.713,-9.631 7.121,-3.541 5.786,1.595 4.815,5.329 -0.974,3.746 0,0"
             style="fill:#000000;fill-opacity:1;fill-rule:nonzero;stroke:none"
             id="path118"
             inkscape:connector-curvature="0" /></g><g
           id="g120"
           transform="translate(187.8965,141.2288)"
           style="fill:#000000"><path
             d="m 0,0 c -5.849,-6.316 -5.522,-14.753 -5.505,-22.829 0.028,-13.161 -2.985,-23.793 -14.174,-31.821 -1.555,-1.116 -0.059,-3.719 1.514,-2.59 9.25,6.636 14.511,15.336 15.446,26.71 0.76,9.242 -2.084,20.931 4.84,28.409 C 3.432,-0.706 1.315,1.421 0,0"
             style="fill:#000000;fill-opacity:1;fill-rule:nonzero;stroke:none"
             id="path122"
             inkscape:connector-curvature="0" /></g></g></g></g></svg>